<?xml version="1.0" encoding="UTF-8" standalone="no"?>
<!-- Created with Inkscape (http://www.inkscape.org/) -->

<svg
   xmlns:dc="http://purl.org/dc/elements/1.1/"
   xmlns:cc="http://creativecommons.org/ns#"
   xmlns:rdf="http://www.w3.org/1999/02/22-rdf-syntax-ns#"
   xmlns:svg="http://www.w3.org/2000/svg"
   xmlns="http://www.w3.org/2000/svg"
   xmlns:sodipodi="http://sodipodi.sourceforge.net/DTD/sodipodi-0.dtd"
   xmlns:inkscape="http://www.inkscape.org/namespaces/inkscape"
   width="1200"
   height="300"
   id="svg2"
   version="1.1"
   inkscape:version="0.48.4 r9939"
   sodipodi:docname="Icons.svg"
   inkscape:export-filename="D:\c\KTANE\XRay\Data\Icons.png"
   inkscape:export-xdpi="162"
   inkscape:export-ydpi="162">
  <defs
     id="defs4" />
  <sodipodi:namedview
     id="base"
     pagecolor="#ffffff"
     bordercolor="#666666"
     borderopacity="1.0"
     inkscape:pageopacity="0"
     inkscape:pageshadow="2"
     inkscape:zoom="0.98510414"
     inkscape:cx="666.56638"
     inkscape:cy="126.25119"
     inkscape:document-units="px"
     inkscape:current-layer="layer1"
     showgrid="true"
     inkscape:window-width="1839"
     inkscape:window-height="1177"
     inkscape:window-x="-8"
     inkscape:window-y="-8"
     inkscape:window-maximized="1">
    <inkscape:grid
       type="xygrid"
       id="grid2985"
       empspacing="10"
       visible="true"
       enabled="true"
       snapvisiblegridlinesonly="true"
       spacingx="10px"
       spacingy="10px" />
  </sodipodi:namedview>
  <metadata
     id="metadata7">
    <rdf:RDF>
      <cc:Work
         rdf:about="">
        <dc:format>image/svg+xml</dc:format>
        <dc:type
           rdf:resource="http://purl.org/dc/dcmitype/StillImage" />
        <dc:title />
      </cc:Work>
    </rdf:RDF>
  </metadata>
  <g
     inkscape:label="Layer 1"
     inkscape:groupmode="layer"
     id="layer1"
     transform="translate(0,-752.36218)">
    <path
       style="fill:#000000;stroke:none;stroke-width:1px;stroke-linecap:butt;stroke-linejoin:miter;stroke-opacity:1;fill-opacity:1"
       d="M 10,90 50,10 90,90 z"
       id="path2987"
       inkscape:connector-curvature="0"
       transform="translate(0,752.36218)" />
    <path
       style="fill:#000000;stroke:none;stroke-width:1px;stroke-linecap:butt;stroke-linejoin:miter;stroke-opacity:1;fill-opacity:1"
       d="M 110,10 190,10 150,90 z"
       id="path3757"
       inkscape:connector-curvature="0"
       transform="translate(0,752.36218)" />
    <path
       style="color:#000000;fill:#000000;fill-opacity:1;fill-rule:nonzero;stroke:none;stroke-width:1px;marker:none;visibility:visible;display:inline;overflow:visible;enable-background:accumulate"
       d="M 410,10 470,10 450,30 490,70 470,90 430,50 410,70 z"
       id="path3775"
       inkscape:connector-curvature="0"
       transform="translate(0,752.36218)"
       sodipodi:nodetypes="cccccccc" />
    <path
       style="color:#000000;fill:#000000;fill-opacity:1;fill-rule:nonzero;stroke:none;stroke-width:1px;marker:none;visibility:visible;display:inline;overflow:visible;enable-background:accumulate"
       d="M 610,822.36218 650,782.36218 630,762.36218 690,762.36218 690,822.36218 670,802.36218 630,842.36218 z"
       id="path3777"
       inkscape:connector-curvature="0" />
    <path
       style="color:#000000;fill:#000000;fill-opacity:1;fill-rule:nonzero;stroke:none;stroke-width:1px;marker:none;visibility:visible;display:inline;overflow:visible;enable-background:accumulate"
       d="M 570,842.36218 510,842.36218 510,782.36218 530,802.36218 570,762.36218 590,782.36218 550,822.36218 z"
       id="path3779"
       inkscape:connector-curvature="0" />
    <path
       style="color:#000000;fill:#000000;fill-opacity:1;fill-rule:nonzero;stroke:none;stroke-width:1px;marker:none;visibility:visible;display:inline;overflow:visible;enable-background:accumulate"
       d="M 790,90 730,90 750,70 710,30 730,10 770,50 790,30 z"
       id="path3781"
       inkscape:connector-curvature="0"
       transform="translate(0,752.36218)"
       sodipodi:nodetypes="cccccccc" />
    <path
       style="color:#000000;fill:#000000;fill-opacity:1;fill-rule:nonzero;stroke:none;stroke-width:1px;marker:none;visibility:visible;display:inline;overflow:visible;enable-background:accumulate"
       d="M 850,10 830,50 870,50 z M 870,50 850,90 890,90 z M 850,90 830,50 810,90 z"
       transform="translate(0,752.36218)"
       id="path3783"
       inkscape:connector-curvature="0"
       sodipodi:nodetypes="cccccccccccc" />
    <path
       style="color:#000000;fill:#000000;fill-opacity:1;fill-rule:nonzero;stroke:none;stroke-width:1px;marker:none;visibility:visible;display:inline;overflow:visible;enable-background:accumulate"
       d="M 910 10 L 930 50 L 950 10 L 910 10 z M 950 10 L 970 50 L 990 10 L 950 10 z M 970 50 L 930 50 L 950 90 L 970 50 z "
       transform="translate(0,752.36218)"
       id="path3788" />
    <path
       style="color:#000000;fill:#000000;fill-opacity:1;fill-rule:nonzero;stroke:none;stroke-width:1px;marker:none;visibility:visible;display:inline;overflow:visible;enable-background:accumulate"
       d="M 1040 10 L 1010 90 L 1030 90 L 1050 36.65625 L 1070 90 L 1090 90 L 1060 10 L 1040 10 z "
       transform="translate(0,752.36218)"
       id="path3806" />
    <path
       style="color:#000000;fill:#000000;fill-opacity:1;fill-rule:nonzero;stroke:none;stroke-width:1px;marker:none;visibility:visible;display:inline;overflow:visible;enable-background:accumulate"
       d="M 1110 10 L 1140 90 L 1160 90 L 1190 10 L 1170 10 L 1150 63.34375 L 1130 10 L 1110 10 z "
       transform="translate(0,752.36218)"
       id="path3811" />
    <g
       style="font-size:113px;font-style:normal;font-variant:normal;font-weight:normal;font-stretch:normal;text-align:center;line-height:125%;letter-spacing:0px;word-spacing:0px;text-anchor:middle;fill:#000000;fill-opacity:1;stroke:none;font-family:Arial Unicode MS;-inkscape-font-specification:Arial Unicode MS"
       id="text3824">
      <path
         d="M 1044.7583,915.93298 C 1042.073,918.72858 1039.5809,920.70571 1037.282,921.86438 1034.983,923.02309 1032.3621,923.60244 1029.4194,923.60242 1025.2996,923.60244 1021.8144,922.19545 1018.9636,919.38147 1016.1129,916.56753 1014.6875,912.80639 1014.6875,908.09802 1014.6875,905.55997 1015.0737,903.20581 1015.8462,901.03552 1016.6186,898.86532 1018.4394,896.07894 1021.3086,892.67639 1024.1777,889.27394 1028.6102,884.96104 1034.606,879.73767 1040.9695,874.18338 1045.2181,868.96008 1047.3516,864.06775 1047.8297,863.14823 1048.4366,862.68843 1049.1724,862.68835 L 1050.7725,862.68835 C 1051.5081,862.68843 1052.0966,863.14823 1052.5381,864.06775 1054.7083,868.96008 1058.9752,874.18338 1065.3389,879.73767 1071.3346,884.96104 1075.767,889.27394 1078.6362,892.67639 1081.5053,896.07894 1083.3169,898.86532 1084.071,901.03552 1084.825,903.20581 1085.2021,905.55997 1085.2021,908.09802 1085.2021,912.80639 1083.7767,916.56753 1080.926,919.38147 1078.0752,922.19545 1074.6083,923.60244 1070.5254,923.60242 1067.5826,923.60244 1064.9618,923.02309 1062.6628,921.86438 1060.3638,920.70571 1057.8717,918.72858 1055.1865,915.93298 1056.1429,926.67388 1058.8097,935.48361 1063.187,942.36218 L 1036.7578,942.36218 C 1041.0983,935.48361 1043.7651,926.67388 1044.7583,915.93298 z"
         id="path3829" />
    </g>
    <g
       style="font-size:113px;font-style:normal;font-variant:normal;font-weight:normal;font-stretch:normal;text-align:center;line-height:125%;letter-spacing:0px;word-spacing:0px;text-anchor:middle;fill:#000000;fill-opacity:1;stroke:none;font-family:Arial Unicode MS;-inkscape-font-specification:Arial Unicode MS"
       id="text3831">
      <path
         d="M 965.22852,889.0072 C 967.3987,888.49228 969.58734,888.2348 971.79443,888.23474 976.79697,888.2348 981.05469,889.89926 984.56763,893.22815 988.0804,896.55713 989.83683,900.75969 989.83691,905.83582 989.83683,910.9488 988.13558,915.18814 984.73315,918.55383 981.33057,921.91958 977.20159,923.60244 972.34619,923.60242 966.27679,923.60244 960.55691,921.04596 955.18652,915.93298 956.14285,926.67388 958.80968,935.48361 963.18701,942.36218 L 936.75781,942.36218 C 941.09827,935.48361 943.7651,926.67388 944.7583,915.93298 939.35104,921.04596 933.63116,923.60244 927.59863,923.60242 922.74315,923.60244 918.60497,921.91958 915.18408,918.55383 911.76318,915.18814 910.05273,910.9488 910.05273,905.83582 910.05273,900.75969 911.81835,896.55713 915.34961,893.22815 918.88085,889.89926 923.14777,888.2348 928.15039,888.23474 930.32061,888.2348 932.50925,888.49228 934.71631,889.0072 932.76674,885.54958 931.79196,882.23903 931.79199,879.07556 931.79196,874.51443 933.54839,870.64293 937.06128,867.46106 940.5741,864.27933 944.86861,862.68843 949.94482,862.68835 955.05773,862.68843 959.37063,864.27933 962.88354,867.46106 966.39634,870.64293 968.15277,874.51443 968.15283,879.07556 968.15277,882.23903 967.178,885.54958 965.22852,889.0072 z"
         style=""
         id="path3836" />
    </g>
    <g
       style="font-size:113px;font-style:normal;font-variant:normal;font-weight:normal;font-stretch:normal;text-align:center;line-height:125%;letter-spacing:0px;word-spacing:0px;text-anchor:middle;fill:#000000;fill-opacity:1;stroke:none;font-family:Arial Unicode MS;-inkscape-font-specification:Arial Unicode MS"
       id="text3838">
      <path
         d="M 850,875.59949 C 852.20699,871.25906 854.65311,868.02209 857.33838,865.88855 860.02355,863.75516 863.40766,862.68843 867.49072,862.68835 872.71397,862.68843 877.09124,864.42647 880.62256,867.90247 884.15373,871.37861 885.91936,875.78347 885.91943,881.11707 885.91936,884.83229 885.11011,888.53826 883.4917,892.23499 881.87314,895.93181 878.87526,900.52059 874.49805,906.00134 867.54584,914.75593 862.80073,921.08274 860.2627,924.98181 857.72456,928.88091 855.26004,933.60763 852.86914,939.16199 851.9495,941.29545 851.10347,942.36218 850.33105,942.36218 L 849.61377,942.36218 C 848.87805,942.36218 848.05042,941.29545 847.13086,939.16199 844.73987,933.71799 842.30294,929.06483 839.82007,925.20251 837.33713,921.34023 832.54604,914.93985 825.44678,906.00134 821.10627,900.52059 818.11758,895.93181 816.48071,892.23499 814.84383,888.53826 814.02539,884.83229 814.02539,881.11707 814.02539,875.70991 815.79101,871.28665 819.32227,867.84729 822.8535,864.40808 827.23078,862.68843 832.4541,862.68835 836.53708,862.68843 839.92119,863.75516 842.60645,865.88855 845.29163,868.02209 847.75615,871.25906 850,875.59949 z"
         style=""
         id="path3843" />
    </g>
    <g
       style="font-size:100px;font-style:normal;font-variant:normal;font-weight:normal;font-stretch:normal;text-align:center;line-height:125%;letter-spacing:0px;word-spacing:0px;text-anchor:middle;fill:#000000;fill-opacity:1;stroke:none;font-family:Arial Unicode MS;-inkscape-font-specification:Arial Unicode MS"
       id="text3845"
       transform="translate(-3.8571429,-4.3392857)">
      <path
         d="M 796.63086,942.36218 786.52344,942.36218 C 786.52335,935.4286 784.93644,929.21929 781.7627,923.73425 778.58879,918.24925 774.2024,913.96052 768.60352,910.86804 L 768.60352,942.36218 759.13086,942.36218 759.13086,910.86804 C 753.59696,913.92797 749.24312,918.20856 746.06934,923.70984 742.89547,929.21115 741.30856,935.4286 741.30859,942.36218 L 731.20117,942.36218 C 731.20114,929.43902 736.73499,918.33877 747.80273,909.0614 L 722.11914,909.0614 722.11914,942.36218 712.59766,942.36218 712.59766,870.78015 722.11914,870.78015 722.11914,900.66296 753.61328,900.66296 734.52148,870.78015 794.14062,870.78015 772.31445,903.64148 C 780.15943,908.36157 786.17342,914.0419 790.35645,920.6825 794.5393,927.32314 796.63077,934.54969 796.63086,942.36218 z M 778.125,879.17859 751.02539,879.17859 764.4043,902.86023 C 770.91465,891.40195 775.48821,883.50807 778.125,879.17859 z"
         id="path3850"
         inkscape:connector-curvature="0" />
    </g>
    <path
       style="color:#000000;fill:#000000;fill-opacity:1;fill-rule:nonzero;stroke:none;stroke-width:1px;marker:none;visibility:visible;display:inline;overflow:visible;enable-background:accumulate"
       d="M 615,862.36218 685,862.36218 685,882.36218 645,922.36218 685,922.36218 685,942.36218 615,942.36218 615,922.36218 655,882.36218 615,882.36218 z"
       id="path3852"
       inkscape:connector-curvature="0"
       sodipodi:nodetypes="ccccccccccc" />
    <path
       style="color:#000000;fill:#000000;fill-opacity:1;fill-rule:nonzero;stroke:none;stroke-width:1px;marker:none;visibility:visible;display:inline;overflow:visible;enable-background:accumulate"
       d="M 540 110 L 510 190 L 530 190 L 535.625 175 L 564.375 175 L 570 190 L 590 190 L 560 110 L 540 110 z M 550 136.65625 L 556.875 155 L 543.125 155 L 550 136.65625 z "
       transform="translate(0,752.36218)"
       id="path3896" />
    <path
       style="color:#000000;fill:#000000;fill-opacity:1;fill-rule:nonzero;stroke:none;stroke-width:1px;marker:none;visibility:visible;display:inline;overflow:visible;enable-background:accumulate"
       d="M 420 110 L 420 120 L 470 120 L 472.84375 140 L 450 140 C 420 140 410 170 410 190 L 480 190 L 490 190 L 480 110 L 420 110 z M 450 150 L 474.28125 150 L 478.5625 180 L 420 180 C 420 170 430 150 450 150 z "
       transform="translate(0,752.36218)"
       id="path3903" />
    <path
       style="color:#000000;fill:#000000;fill-opacity:1;fill-rule:nonzero;stroke:none;stroke-width:1;marker:none;visibility:visible;display:inline;overflow:visible;enable-background:accumulate"
       d="M 350 110 L 358.96875 137.625 L 388.03125 137.625 C 382.82121 121.58813 367.77404 110 350 110 z M 350 110 C 332.22596 110 317.17879 121.58813 311.96875 137.625 L 341.03125 137.625 L 350 110 z M 311.96875 137.625 C 310.70322 141.52039 310 145.68265 310 150 C 310 163.31136 316.49846 175.10385 326.5 182.375 L 335.46875 154.71875 L 311.96875 137.625 z M 326.5 182.375 C 333.09691 187.17097 341.21997 190 350 190 C 358.78003 190 366.90309 187.17097 373.5 182.375 L 350 165.28125 L 326.5 182.375 z M 373.5 182.375 C 383.50154 175.10385 390 163.31136 390 150 C 390 145.68265 389.29678 141.52039 388.03125 137.625 L 364.53125 154.71875 L 373.5 182.375 z "
       transform="translate(0,752.36218)"
       id="path3908" />
    <path
       style="color:#000000;fill:#000000;fill-opacity:1;fill-rule:nonzero;stroke:none;stroke-width:1;marker:none;visibility:visible;display:inline;overflow:visible;enable-background:accumulate"
       d="M 250 110 C 227.90861 110 210 127.90861 210 150 C 210 172.09139 227.90861 190 250 190 C 272.09139 190 290 172.09139 290 150 C 290 127.90861 272.09139 110 250 110 z M 245 120.4375 L 245 147.9375 L 225.5625 167.375 C 222.06938 162.47056 220 156.47998 220 150 C 220 135.13964 230.81794 122.82334 245 120.4375 z M 255 120.4375 C 269.18206 122.82334 280 135.13964 280 150 C 280 156.47998 277.93062 162.47056 274.4375 167.375 L 255 147.9375 L 255 120.4375 z M 245 162.0625 L 245 179.5625 C 240.446 178.79639 236.23659 177.00981 232.625 174.4375 L 245 162.0625 z M 255 162.0625 L 267.375 174.4375 C 263.76341 177.00981 259.554 178.79639 255 179.5625 L 255 162.0625 z "
       transform="translate(0,752.36218)"
       id="path3939" />
    <path
       style="color:#000000;fill:#000000;fill-opacity:1;fill-rule:nonzero;stroke:none;stroke-width:1;marker:none;visibility:visible;display:inline;overflow:visible;enable-background:accumulate"
       d="M 140 110 L 140 136.25 L 115.0625 128.125 L 108.875 147.15625 L 133.8125 155.25 L 118.40625 176.46875 L 134.59375 188.25 L 150 167.03125 L 165.40625 188.25 L 181.59375 176.46875 L 166.1875 155.25 L 191.125 147.15625 L 184.9375 128.125 L 160 136.25 L 160 110 L 140 110 z "
       transform="translate(0,752.36218)"
       id="rect3951" />
    <path
       sodipodi:type="star"
       style="color:#000000;fill:#000000;fill-opacity:1;fill-rule:nonzero;stroke:none;stroke-width:1;marker:none;visibility:visible;display:inline;overflow:visible;enable-background:accumulate"
       id="path3993"
       sodipodi:sides="5"
       sodipodi:cx="50"
       sodipodi:cy="150"
       sodipodi:r1="40"
       sodipodi:r2="15.28"
       sodipodi:arg1="-1.5707963"
       sodipodi:arg2="-0.9424778"
       inkscape:flatsided="false"
       inkscape:rounded="0"
       inkscape:randomized="0"
       d="M 50.000001,110 58.981358,137.63822 88.042261,137.63932 64.532143,154.72178 73.511409,182.36068 50,165.28 26.488589,182.36068 35.467857,154.72178 11.95774,137.63932 41.018641,137.63822 z"
       transform="matrix(1.1050121,0,0,1.1050121,-5.2506054,740.81085)"
       inkscape:transform-center-y="-4.2207699" />
    <path
       style="color:#000000;fill:#000000;fill-opacity:1;fill-rule:nonzero;stroke:none;stroke-width:1;marker:none;visibility:visible;display:inline;overflow:visible;enable-background:accumulate"
       d="M 5,968.61172 33.125,1002.362 5,1036.1122 21.875,1036.1122 43.25,1010.448 43.25,1036.1122 56.75,1036.1122 56.75,1010.448 78.125,1036.1122 95,1036.1122 66.875,1002.362 95,968.61172 78.125,968.61172 56.75,994.27561 56.75,968.61172 43.25,968.61172 43.25,994.27561 21.875,968.61172 5,968.61172 z"
       id="rect4001"
       inkscape:connector-curvature="0" />
    <path
       style="color:#000000;fill:#000000;fill-opacity:1;fill-rule:nonzero;stroke:none;stroke-width:1;marker:none;visibility:visible;display:inline;overflow:visible;enable-background:accumulate"
       d="M 152.5,962.36218 C 130.40861,962.36218 112.5,980.27079 112.5,1002.3622 112.5,1024.4536 130.40861,1042.3622 152.5,1042.3622 169.47126,1042.3622 183.93907,1031.7775 189.75,1016.8622 184.63804,1026.1052 174.81013,1032.3622 163.5,1032.3622 146.93146,1032.3622 133.5,1018.9307 133.5,1002.3622 133.5,985.79364 146.93146,972.36218 163.5,972.36218 174.81013,972.36218 184.63804,978.61915 189.75,987.86218 183.93907,972.94685 169.47126,962.36218 152.5,962.36218 z"
       id="path4057"
       inkscape:connector-curvature="0" />
    <path
       sodipodi:type="arc"
       style="color:#000000;fill:#000000;fill-opacity:1;fill-rule:nonzero;stroke:none;stroke-width:1;marker:none;visibility:visible;display:inline;overflow:visible;enable-background:accumulate"
       id="path4062"
       sodipodi:cx="250"
       sodipodi:cy="250"
       sodipodi:rx="40"
       sodipodi:ry="40"
       d="M 290,250 C 290,272.09139 272.09139,290 250,290 227.90861,290 210,272.09139 210,250 210,227.90861 227.90861,210 250,210 272.09139,210 290,227.90861 290,250 z"
       transform="translate(0,752.36218)" />
    <path
       style="color:#000000;fill:#000000;fill-opacity:1;fill-rule:nonzero;stroke:none;stroke-width:1;marker:none;visibility:visible;display:inline;overflow:visible;enable-background:accumulate"
       d="M 350 210 C 327.90861 210 310 227.90859 310 250 C 310 272.0914 327.90861 290 350 290 C 372.09139 290 390 272.0914 390 250 C 390 227.90859 372.09139 210 350 210 z M 350 230 C 361.04569 230 370 238.95431 370 250 C 370 261.04569 361.04569 270 350 270 C 338.95431 270 330 261.04569 330 250 C 330 238.95431 338.95431 230 350 230 z "
       transform="translate(0,752.36218)"
       id="path4168" />
    <path
       style="color:#000000;fill:#000000;fill-opacity:1;fill-rule:nonzero;stroke:none;stroke-width:1px;marker:none;visibility:visible;display:inline;overflow:visible;enable-background:accumulate"
       d="M 430 210 L 410 230 L 430 250 L 410 270 L 430 290 L 450 270 L 470 290 L 490 270 L 470 250 L 490 230 L 470 210 L 450 230 L 430 210 z "
       transform="translate(0,752.36218)"
       id="path4082" />
    <path
       style="color:#000000;fill:#000000;fill-opacity:1;fill-rule:nonzero;stroke:none;stroke-width:1;marker:none;visibility:visible;display:inline;overflow:visible;enable-background:accumulate"
       d="M 510 210 L 510 290 L 590 290 L 590 210 L 510 210 z M 527.09375 220 L 572.90625 220 L 550 242.90625 L 527.09375 220 z M 520 227.09375 L 542.90625 250 L 520 272.90625 L 520 227.09375 z M 580 227.09375 L 580 272.90625 L 557.09375 250 L 580 227.09375 z M 550 257.09375 L 572.90625 280 L 527.09375 280 L 550 257.09375 z "
       transform="translate(0,752.36218)"
       id="rect4087" />
    <path
       style="color:#000000;fill:#000000;fill-opacity:1;fill-rule:nonzero;stroke:none;stroke-width:1px;marker:none;visibility:visible;display:inline;overflow:visible;enable-background:accumulate"
       d="M 605,1002.3622 635,972.36218 635,992.36218 665,992.36218 665,972.36218 695,1002.3622 665,1032.3622 665,1012.3622 635,1012.3622 635,1032.3622 z"
       id="path4105"
       inkscape:connector-curvature="0"
       sodipodi:nodetypes="ccccccccccc" />
    <g
       style="font-size:113px;font-style:normal;font-variant:normal;font-weight:normal;font-stretch:normal;text-align:center;line-height:125%;letter-spacing:0px;word-spacing:0px;text-anchor:middle;fill:#000000;fill-opacity:1;stroke:none;font-family:Arial Unicode MS;-inkscape-font-specification:Arial Unicode MS"
       id="text4120">
      <path
         d="M 782.33301,1002.4701 750,1042.3622 717.66699,1002.4701 750,962.578 z"
         style=""
         id="path4125" />
    </g>
    <path
       sodipodi:type="star"
       style="color:#000000;fill:#000000;fill-opacity:1;fill-rule:nonzero;stroke:none;stroke-width:1;marker:none;visibility:visible;display:inline;overflow:visible;enable-background:accumulate"
       id="path4127"
       sodipodi:sides="6"
       sodipodi:cx="850"
       sodipodi:cy="250"
       sodipodi:r1="40"
       sodipodi:r2="23.08"
       sodipodi:arg1="-1.5707963"
       sodipodi:arg2="-1.0471976"
       inkscape:flatsided="false"
       inkscape:rounded="0"
       inkscape:randomized="0"
       d="M 850,210 861.54,230.01213 884.64102,230 873.08,250 884.64102,270 861.54,269.98787 850,290 838.46,269.98787 815.35898,270 826.92,250 815.35898,230 838.46,230.01213 z"
       transform="translate(0,752.36218)" />
    <path
       style="color:#000000;fill:#000000;fill-opacity:1;fill-rule:nonzero;stroke:none;stroke-width:1;marker:none;visibility:visible;display:inline;overflow:visible;enable-background:accumulate"
       d="M 1150 110 C 1130 110 1120 125 1120 142.5 C 1120 158.47627 1128.3312 172.35809 1145 174.65625 L 1145 190 L 1155 190 L 1155 174.65625 C 1171.6688 172.35809 1180 158.47627 1180 142.5 C 1180 125 1170 110 1150 110 z M 1150 120 C 1165 120 1170 130 1170 142.5 C 1170 155 1165 165 1150 165 C 1135 165 1130 155 1130 142.5 C 1130 130 1135 120 1150 120 z "
       transform="translate(0,752.36218)"
       id="path4133" />
    <path
       style="color:#000000;fill:#000000;fill-opacity:1;fill-rule:nonzero;stroke:none;stroke-width:1;marker:none;visibility:visible;display:inline;overflow:visible;enable-background:accumulate"
       d="M 250 10 C 227.90861 10 210 27.90861 210 50 C 210 72.09139 227.90861 90 250 90 C 272.09139 90 290 72.09139 290 50 C 290 27.90861 272.09139 10 250 10 z M 250 20 C 256.47998 20 262.47056 22.069376 267.375 25.5625 L 225.5625 67.375 C 222.06938 62.470557 220 56.479984 220 50 C 220 33.431458 233.43146 20 250 20 z M 274.4375 32.625 C 277.93062 37.529443 280 43.520016 280 50 C 280 66.568542 266.56854 80 250 80 C 243.52002 80 237.52944 77.930624 232.625 74.4375 L 274.4375 32.625 z "
       transform="translate(0,752.36218)"
       id="path4144" />
    <path
       style="color:#000000;fill:#000000;fill-opacity:1;fill-rule:nonzero;stroke:none;stroke-width:1;marker:none;visibility:visible;display:inline;overflow:visible;enable-background:accumulate"
       d="M 350 10 C 327.90861 10 310 27.90861 310 50 C 310 72.09139 327.90861 90 350 90 C 372.09139 90 390 72.09139 390 50 C 390 27.90861 372.09139 10 350 10 z M 350 20 C 366.56854 20 380 33.431458 380 50 C 380 56.479984 377.93062 62.470557 374.4375 67.375 L 332.625 25.5625 C 337.52944 22.069376 343.52002 20 350 20 z M 325.5625 32.625 L 367.375 74.4375 C 362.47056 77.930624 356.47998 80 350 80 C 333.43146 80 320 66.568542 320 50 C 320 43.520016 322.06938 37.529443 325.5625 32.625 z "
       transform="translate(0,752.36218)"
       id="path4152" />
  </g>
</svg>
