<?xml version="1.0" encoding="UTF-8" standalone="no"?>
<!-- Created with Inkscape (http://www.inkscape.org/) -->

<svg
   xmlns:dc="http://purl.org/dc/elements/1.1/"
   xmlns:cc="http://creativecommons.org/ns#"
   xmlns:rdf="http://www.w3.org/1999/02/22-rdf-syntax-ns#"
   xmlns:svg="http://www.w3.org/2000/svg"
   xmlns="http://www.w3.org/2000/svg"
   xmlns:sodipodi="http://sodipodi.sourceforge.net/DTD/sodipodi-0.dtd"
   xmlns:inkscape="http://www.inkscape.org/namespaces/inkscape"
   width="1200"
   height="300"
   id="svg2"
   version="1.1"
   inkscape:version="0.48.4 r9939"
   sodipodi:docname="Icons.svg"
   inkscape:export-filename="D:\c\KTANE\XRay\Data\Icons.png"
   inkscape:export-xdpi="162"
   inkscape:export-ydpi="162">
  <defs
     id="defs4" />
  <sodipodi:namedview
     id="base"
     pagecolor="#ffffff"
     bordercolor="#666666"
     borderopacity="1.0"
     inkscape:pageopacity="0"
     inkscape:pageshadow="2"
     inkscape:zoom="1.1641667"
     inkscape:cx="600"
     inkscape:cy="150"
     inkscape:document-units="px"
     inkscape:current-layer="layer1"
     showgrid="true"
     inkscape:window-width="1839"
     inkscape:window-height="1177"
     inkscape:window-x="-8"
     inkscape:window-y="-8"
     inkscape:window-maximized="1">
    <inkscape:grid
       type="xygrid"
       id="grid2985"
       empspacing="10"
       visible="true"
       enabled="true"
       snapvisiblegridlinesonly="true"
       spacingx="5px"
       spacingy="5px" />
  </sodipodi:namedview>
  <metadata
     id="metadata7">
    <rdf:RDF>
      <cc:Work
         rdf:about="">
        <dc:format>image/svg+xml</dc:format>
        <dc:type
           rdf:resource="http://purl.org/dc/dcmitype/StillImage" />
        <dc:title />
      </cc:Work>
    </rdf:RDF>
  </metadata>
  <g
     inkscape:label="Layer 1"
     inkscape:groupmode="layer"
     id="layer1"
     transform="translate(0,-752.36218)">
    <path
       style="fill:#000000;stroke:none;stroke-width:1px;stroke-linecap:butt;stroke-linejoin:miter;stroke-opacity:1;fill-opacity:1"
       d="M 10,90 50,10 90,90 z"
       id="path2987"
       inkscape:connector-curvature="0"
       transform="translate(0,752.36218)" />
    <path
       style="fill:#000000;stroke:none;stroke-width:1px;stroke-linecap:butt;stroke-linejoin:miter;stroke-opacity:1;fill-opacity:1"
       d="M 110,10 190,10 150,90 z"
       id="path3757"
       inkscape:connector-curvature="0"
       transform="translate(0,752.36218)" />
    <path
       style="color:#000000;fill:#000000;fill-opacity:1;fill-rule:nonzero;stroke:none;stroke-width:1px;marker:none;visibility:visible;display:inline;overflow:visible;enable-background:accumulate"
       d="M 410,10 470,10 450,30 490,70 470,90 430,50 410,70 z"
       id="path3775"
       inkscape:connector-curvature="0"
       transform="translate(0,752.36218)"
       sodipodi:nodetypes="cccccccc" />
    <path
       style="color:#000000;fill:#000000;fill-opacity:1;fill-rule:nonzero;stroke:none;stroke-width:1px;marker:none;visibility:visible;display:inline;overflow:visible;enable-background:accumulate"
       d="M 610,822.36218 650,782.36218 630,762.36218 690,762.36218 690,822.36218 670,802.36218 630,842.36218 z"
       id="path3777"
       inkscape:connector-curvature="0" />
    <path
       style="color:#000000;fill:#000000;fill-opacity:1;fill-rule:nonzero;stroke:none;stroke-width:1px;marker:none;visibility:visible;display:inline;overflow:visible;enable-background:accumulate"
       d="M 570,842.36218 510,842.36218 510,782.36218 530,802.36218 570,762.36218 590,782.36218 550,822.36218 z"
       id="path3779"
       inkscape:connector-curvature="0" />
    <path
       style="color:#000000;fill:#000000;fill-opacity:1;fill-rule:nonzero;stroke:none;stroke-width:1px;marker:none;visibility:visible;display:inline;overflow:visible;enable-background:accumulate"
       d="M 790,90 730,90 750,70 710,30 730,10 770,50 790,30 z"
       id="path3781"
       inkscape:connector-curvature="0"
       transform="translate(0,752.36218)"
       sodipodi:nodetypes="cccccccc" />
    <path
       style="color:#000000;fill:#000000;fill-opacity:1;fill-rule:nonzero;stroke:none;stroke-width:1px;marker:none;visibility:visible;display:inline;overflow:visible;enable-background:accumulate"
       d="M 850,10 830,50 870,50 z M 870,50 850,90 890,90 z M 850,90 830,50 810,90 z"
       transform="translate(0,752.36218)"
       id="path3783"
       inkscape:connector-curvature="0"
       sodipodi:nodetypes="cccccccccccc" />
    <path
       style="color:#000000;fill:#000000;fill-opacity:1;fill-rule:nonzero;stroke:none;stroke-width:1px;marker:none;visibility:visible;display:inline;overflow:visible;enable-background:accumulate"
       d="M 910 10 L 930 50 L 950 10 L 910 10 z M 950 10 L 970 50 L 990 10 L 950 10 z M 970 50 L 930 50 L 950 90 L 970 50 z "
       transform="translate(0,752.36218)"
       id="path3788" />
    <path
       style="color:#000000;fill:#000000;fill-opacity:1;fill-rule:nonzero;stroke:none;stroke-width:1px;marker:none;visibility:visible;display:inline;overflow:visible;enable-background:accumulate"
       d="M 1040 10 L 1010 90 L 1030 90 L 1050 36.65625 L 1070 90 L 1090 90 L 1060 10 L 1040 10 z "
       transform="translate(0,752.36218)"
       id="path3806" />
    <path
       style="color:#000000;fill:#000000;fill-opacity:1;fill-rule:nonzero;stroke:none;stroke-width:1px;marker:none;visibility:visible;display:inline;overflow:visible;enable-background:accumulate"
       d="M 1110 10 L 1140 90 L 1160 90 L 1190 10 L 1170 10 L 1150 63.34375 L 1130 10 L 1110 10 z "
       transform="translate(0,752.36218)"
       id="path3811" />
    <g
       style="font-size:113px;font-style:normal;font-variant:normal;font-weight:normal;font-stretch:normal;text-align:center;line-height:125%;letter-spacing:0px;word-spacing:0px;text-anchor:middle;fill:#000000;fill-opacity:1;stroke:none;font-family:Arial Unicode MS;-inkscape-font-specification:Arial Unicode MS"
       id="text3838">
      <path
         d="M 850,875.59949 C 852.20699,871.25906 854.65311,868.02209 857.33838,865.88855 860.02355,863.75516 863.40766,862.68843 867.49072,862.68835 872.71397,862.68843 877.09124,864.42647 880.62256,867.90247 884.15373,871.37861 885.91936,875.78347 885.91943,881.11707 885.91936,884.83229 885.11011,888.53826 883.4917,892.23499 881.87314,895.93181 878.87526,900.52059 874.49805,906.00134 867.54584,914.75593 862.80073,921.08274 860.2627,924.98181 857.72456,928.88091 855.26004,933.60763 852.86914,939.16199 851.9495,941.29545 851.10347,942.36218 850.33105,942.36218 L 849.61377,942.36218 C 848.87805,942.36218 848.05042,941.29545 847.13086,939.16199 844.73987,933.71799 842.30294,929.06483 839.82007,925.20251 837.33713,921.34023 832.54604,914.93985 825.44678,906.00134 821.10627,900.52059 818.11758,895.93181 816.48071,892.23499 814.84383,888.53826 814.02539,884.83229 814.02539,881.11707 814.02539,875.70991 815.79101,871.28665 819.32227,867.84729 822.8535,864.40808 827.23078,862.68843 832.4541,862.68835 836.53708,862.68843 839.92119,863.75516 842.60645,865.88855 845.29163,868.02209 847.75615,871.25906 850,875.59949 z"
         style=""
         id="path3843" />
    </g>
    <path
       style="color:#000000;fill:#000000;fill-opacity:1;fill-rule:nonzero;stroke:none;stroke-width:1px;marker:none;visibility:visible;display:inline;overflow:visible;enable-background:accumulate"
       d="M 615,862.36218 685,862.36218 685,882.36218 645,922.36218 685,922.36218 685,942.36218 615,942.36218 615,922.36218 655,882.36218 615,882.36218 z"
       id="path3852"
       inkscape:connector-curvature="0"
       sodipodi:nodetypes="ccccccccccc" />
    <path
       style="color:#000000;fill:#000000;fill-opacity:1;fill-rule:nonzero;stroke:none;stroke-width:1px;marker:none;visibility:visible;display:inline;overflow:visible;enable-background:accumulate"
       d="M 540 110 L 510 190 L 530 190 L 535.625 175 L 564.375 175 L 570 190 L 590 190 L 560 110 L 540 110 z M 550 136.65625 L 556.875 155 L 543.125 155 L 550 136.65625 z "
       transform="translate(0,752.36218)"
       id="path3896" />
    <path
       style="color:#000000;fill:#000000;fill-opacity:1;fill-rule:nonzero;stroke:none;stroke-width:1px;marker:none;visibility:visible;display:inline;overflow:visible;enable-background:accumulate"
       d="M 420 110 L 420 120 L 470 120 L 472.84375 140 L 450 140 C 420 140 410 170 410 190 L 480 190 L 490 190 L 480 110 L 420 110 z M 450 150 L 474.28125 150 L 478.5625 180 L 420 180 C 420 170 430 150 450 150 z "
       transform="translate(0,752.36218)"
       id="path3903" />
    <path
       style="color:#000000;fill:#000000;fill-opacity:1;fill-rule:nonzero;stroke:none;stroke-width:1;marker:none;visibility:visible;display:inline;overflow:visible;enable-background:accumulate"
       d="M 250 110 C 227.90861 110 210 127.90861 210 150 C 210 172.09139 227.90861 190 250 190 C 272.09139 190 290 172.09139 290 150 C 290 127.90861 272.09139 110 250 110 z M 245 120.4375 L 245 147.9375 L 225.5625 167.375 C 222.06938 162.47056 220 156.47998 220 150 C 220 135.13964 230.81794 122.82334 245 120.4375 z M 255 120.4375 C 269.18206 122.82334 280 135.13964 280 150 C 280 156.47998 277.93062 162.47056 274.4375 167.375 L 255 147.9375 L 255 120.4375 z M 245 162.0625 L 245 179.5625 C 240.446 178.79639 236.23659 177.00981 232.625 174.4375 L 245 162.0625 z M 255 162.0625 L 267.375 174.4375 C 263.76341 177.00981 259.554 178.79639 255 179.5625 L 255 162.0625 z "
       transform="translate(0,752.36218)"
       id="path3939" />
    <path
       sodipodi:type="star"
       style="color:#000000;fill:#000000;fill-opacity:1;fill-rule:nonzero;stroke:none;stroke-width:1;marker:none;visibility:visible;display:inline;overflow:visible;enable-background:accumulate"
       id="path3993"
       sodipodi:sides="5"
       sodipodi:cx="50"
       sodipodi:cy="150"
       sodipodi:r1="40"
       sodipodi:r2="15.28"
       sodipodi:arg1="-1.5707963"
       sodipodi:arg2="-0.9424778"
       inkscape:flatsided="false"
       inkscape:rounded="0"
       inkscape:randomized="0"
       d="M 50.000001,110 58.981358,137.63822 88.042261,137.63932 64.532143,154.72178 73.511409,182.36068 50,165.28 26.488589,182.36068 35.467857,154.72178 11.95774,137.63932 41.018641,137.63822 z"
       transform="matrix(1.1050121,0,0,1.1050121,-5.2506054,740.81085)"
       inkscape:transform-center-y="-4.2207699" />
    <path
       style="color:#000000;fill:#000000;fill-opacity:1;fill-rule:nonzero;stroke:none;stroke-width:1;marker:none;visibility:visible;display:inline;overflow:visible;enable-background:accumulate"
       d="M 5,968.61172 33.125,1002.362 5,1036.1122 21.875,1036.1122 43.25,1010.448 43.25,1036.1122 56.75,1036.1122 56.75,1010.448 78.125,1036.1122 95,1036.1122 66.875,1002.362 95,968.61172 78.125,968.61172 56.75,994.27561 56.75,968.61172 43.25,968.61172 43.25,994.27561 21.875,968.61172 5,968.61172 z"
       id="rect4001"
       inkscape:connector-curvature="0" />
    <path
       style="color:#000000;fill:#000000;fill-opacity:1;fill-rule:nonzero;stroke:none;stroke-width:1;marker:none;visibility:visible;display:inline;overflow:visible;enable-background:accumulate"
       d="M 152.5,962.36218 C 130.40861,962.36218 112.5,980.27079 112.5,1002.3622 112.5,1024.4536 130.40861,1042.3622 152.5,1042.3622 169.47126,1042.3622 183.93907,1031.7775 189.75,1016.8622 184.63804,1026.1052 174.81013,1032.3622 163.5,1032.3622 146.93146,1032.3622 133.5,1018.9307 133.5,1002.3622 133.5,985.79364 146.93146,972.36218 163.5,972.36218 174.81013,972.36218 184.63804,978.61915 189.75,987.86218 183.93907,972.94685 169.47126,962.36218 152.5,962.36218 z"
       id="path4057"
       inkscape:connector-curvature="0" />
    <path
       sodipodi:type="arc"
       style="color:#000000;fill:#000000;fill-opacity:1;fill-rule:nonzero;stroke:none;stroke-width:1;marker:none;visibility:visible;display:inline;overflow:visible;enable-background:accumulate"
       id="path4062"
       sodipodi:cx="250"
       sodipodi:cy="250"
       sodipodi:rx="40"
       sodipodi:ry="40"
       d="M 290,250 C 290,272.09139 272.09139,290 250,290 227.90861,290 210,272.09139 210,250 210,227.90861 227.90861,210 250,210 272.09139,210 290,227.90861 290,250 z"
       transform="translate(0,752.36218)" />
    <path
       style="color:#000000;fill:#000000;fill-opacity:1;fill-rule:nonzero;stroke:none;stroke-width:1;marker:none;visibility:visible;display:inline;overflow:visible;enable-background:accumulate"
       d="M 350 210 C 327.90861 210 310 227.90859 310 250 C 310 272.0914 327.90861 290 350 290 C 372.09139 290 390 272.0914 390 250 C 390 227.90859 372.09139 210 350 210 z M 350 230 C 361.04569 230 370 238.95431 370 250 C 370 261.04569 361.04569 270 350 270 C 338.95431 270 330 261.04569 330 250 C 330 238.95431 338.95431 230 350 230 z "
       transform="translate(0,752.36218)"
       id="path4168" />
    <path
       style="color:#000000;fill:#000000;fill-opacity:1;fill-rule:nonzero;stroke:none;stroke-width:1px;marker:none;visibility:visible;display:inline;overflow:visible;enable-background:accumulate"
       d="M 430 210 L 410 230 L 430 250 L 410 270 L 430 290 L 450 270 L 470 290 L 490 270 L 470 250 L 490 230 L 470 210 L 450 230 L 430 210 z "
       transform="translate(0,752.36218)"
       id="path4082" />
    <path
       style="color:#000000;fill:#000000;fill-opacity:1;fill-rule:nonzero;stroke:none;stroke-width:1;marker:none;visibility:visible;display:inline;overflow:visible;enable-background:accumulate"
       d="M 510 210 L 510 290 L 590 290 L 590 210 L 510 210 z M 527.09375 220 L 572.90625 220 L 550 242.90625 L 527.09375 220 z M 520 227.09375 L 542.90625 250 L 520 272.90625 L 520 227.09375 z M 580 227.09375 L 580 272.90625 L 557.09375 250 L 580 227.09375 z M 550 257.09375 L 572.90625 280 L 527.09375 280 L 550 257.09375 z "
       transform="translate(0,752.36218)"
       id="rect4087" />
    <path
       style="color:#000000;fill:#000000;fill-opacity:1;fill-rule:nonzero;stroke:none;stroke-width:1px;marker:none;visibility:visible;display:inline;overflow:visible;enable-background:accumulate"
       d="M 605,1002.3622 635,972.36218 635,992.36218 665,992.36218 665,972.36218 695,1002.3622 665,1032.3622 665,1012.3622 635,1012.3622 635,1032.3622 z"
       id="path4105"
       inkscape:connector-curvature="0"
       sodipodi:nodetypes="ccccccccccc" />
    <g
       style="font-size:113px;font-style:normal;font-variant:normal;font-weight:normal;font-stretch:normal;text-align:center;line-height:125%;letter-spacing:0px;word-spacing:0px;text-anchor:middle;fill:#000000;fill-opacity:1;stroke:none;font-family:Arial Unicode MS;-inkscape-font-specification:Arial Unicode MS"
       id="text4120">
      <path
         d="M 782.33301,1002.4701 750,1042.3622 717.66699,1002.4701 750,962.578 z"
         style=""
         id="path4125" />
    </g>
    <path
       sodipodi:type="star"
       style="color:#000000;fill:#000000;fill-opacity:1;fill-rule:nonzero;stroke:none;stroke-width:1;marker:none;visibility:visible;display:inline;overflow:visible;enable-background:accumulate"
       id="path4127"
       sodipodi:sides="6"
       sodipodi:cx="850"
       sodipodi:cy="250"
       sodipodi:r1="40"
       sodipodi:r2="23.08"
       sodipodi:arg1="-1.5707963"
       sodipodi:arg2="-1.0471976"
       inkscape:flatsided="false"
       inkscape:rounded="0"
       inkscape:randomized="0"
       d="M 850,210 861.54,230.01213 884.64102,230 873.08,250 884.64102,270 861.54,269.98787 850,290 838.46,269.98787 815.35898,270 826.92,250 815.35898,230 838.46,230.01213 z"
       transform="translate(0,752.36218)" />
    <path
       style="color:#000000;fill:#000000;fill-opacity:1;fill-rule:nonzero;stroke:none;stroke-width:1;marker:none;visibility:visible;display:inline;overflow:visible;enable-background:accumulate"
       d="M 1150 110 C 1130 110 1120 125 1120 142.5 C 1120 158.47627 1128.3312 172.35809 1145 174.65625 L 1145 190 L 1155 190 L 1155 174.65625 C 1171.6688 172.35809 1180 158.47627 1180 142.5 C 1180 125 1170 110 1150 110 z M 1150 120 C 1165 120 1170 130 1170 142.5 C 1170 155 1165 165 1150 165 C 1135 165 1130 155 1130 142.5 C 1130 130 1135 120 1150 120 z "
       transform="translate(0,752.36218)"
       id="path4133" />
    <path
       style="color:#000000;fill:#000000;fill-opacity:1;fill-rule:nonzero;stroke:none;stroke-width:1;marker:none;visibility:visible;display:inline;overflow:visible;enable-background:accumulate"
       d="M 250 10 C 227.90861 10 210 27.90861 210 50 C 210 72.09139 227.90861 90 250 90 C 272.09139 90 290 72.09139 290 50 C 290 27.90861 272.09139 10 250 10 z M 250 20 C 256.47998 20 262.47056 22.069376 267.375 25.5625 L 225.5625 67.375 C 222.06938 62.470557 220 56.479984 220 50 C 220 33.431458 233.43146 20 250 20 z M 274.4375 32.625 C 277.93062 37.529443 280 43.520016 280 50 C 280 66.568542 266.56854 80 250 80 C 243.52002 80 237.52944 77.930624 232.625 74.4375 L 274.4375 32.625 z "
       transform="translate(0,752.36218)"
       id="path4144" />
    <path
       style="color:#000000;fill:#000000;fill-opacity:1;fill-rule:nonzero;stroke:none;stroke-width:1;marker:none;visibility:visible;display:inline;overflow:visible;enable-background:accumulate"
       d="M 350 10 C 327.90861 10 310 27.90861 310 50 C 310 72.09139 327.90861 90 350 90 C 372.09139 90 390 72.09139 390 50 C 390 27.90861 372.09139 10 350 10 z M 350 20 C 366.56854 20 380 33.431458 380 50 C 380 56.479984 377.93062 62.470557 374.4375 67.375 L 332.625 25.5625 C 337.52944 22.069376 343.52002 20 350 20 z M 325.5625 32.625 L 367.375 74.4375 C 362.47056 77.930624 356.47998 80 350 80 C 333.43146 80 320 66.568542 320 50 C 320 43.520016 322.06938 37.529443 325.5625 32.625 z "
       transform="translate(0,752.36218)"
       id="path4152" />
    <path
       style="color:#000000;fill:#000000;fill-opacity:1;fill-rule:nonzero;stroke:none;stroke-width:1px;marker:none;visibility:visible;display:inline;overflow:visible;enable-background:accumulate"
       d="M 160,857.36218 125,912.36218 155,907.36218 140,947.36218 175,892.36218 145,897.36218 z"
       id="path3040"
       inkscape:connector-curvature="0"
       inkscape:export-filename="D:\temp\temp.png"
       inkscape:export-xdpi="162"
       inkscape:export-ydpi="162" />
    <path
       style="color:#000000;fill:#000000;stroke:none;stroke-width:1;stroke-linecap:butt;stroke-linejoin:miter;stroke-miterlimit:4;stroke-opacity:1;stroke-dasharray:none;stroke-dashoffset:0;marker:none;visibility:visible;display:inline;overflow:visible;enable-background:accumulate;fill-opacity:1"
       d="M 350 110 C 327.90861 110 310 127.90861 310 150 C 310 172.09139 327.90861 190 350 190 C 372.09139 190 390 172.09139 390 150 C 390 127.90861 372.09139 110 350 110 z M 335 155 C 340.52285 155 345 159.47715 345 165 C 345 170.52285 340.52285 175 335 175 C 329.47715 175 325 170.52285 325 165 C 325 159.47715 329.47715 155 335 155 z M 365 155 C 370.52285 155 375 159.47715 375 165 C 375 170.52285 370.52285 175 365 175 C 359.47715 175 355 170.52285 355 165 C 355 159.47715 359.47715 155 365 155 z "
       transform="translate(0,752.36218)"
       id="path3030" />
    <path
       style="color:#000000;fill:#000000;fill-opacity:1;fill-rule:nonzero;stroke:none;stroke-width:1;marker:none;visibility:visible;display:inline;overflow:visible;enable-background:accumulate"
       d="M 750 110 C 738.95431 110 730 118.95431 730 130 C 730 135.33212 732.09876 140.16462 735.5 143.75 L 731 150.9375 C 729.10187 150.3398 727.09553 150 725 150 C 713.95431 150 705 158.95431 705 170 C 705 181.04569 713.95431 190 725 190 C 736.04569 190 745 181.04569 745 170 C 745 164.66788 742.90124 159.83538 739.5 156.25 L 744 149.0625 C 745.89813 149.6602 747.90447 150 750 150 C 752.09553 150 754.10187 149.6602 756 149.0625 L 760.5 156.25 C 757.09876 159.83538 755 164.66788 755 170 C 755 181.04569 763.95431 190 775 190 C 786.04569 190 795 181.04569 795 170 C 795 158.95431 786.04569 150 775 150 C 772.90447 150 770.89813 150.3398 769 150.9375 L 764.5 143.75 C 767.90124 140.16462 770 135.33212 770 130 C 770 118.95431 761.04569 110 750 110 z "
       transform="translate(0,752.36218)"
       id="path3826" />
    <path
       style="color:#000000;fill:#000000;fill-opacity:1;fill-rule:nonzero;stroke:none;stroke-width:10;marker:none;visibility:visible;display:inline;overflow:visible;enable-background:accumulate"
       d="M 920,862.36218 920,942.36218 940,942.36218 940,916.26843 943.5625,912.39343 965.375,942.36218 990.09375,942.36218 957.40625,897.42468 989.75,862.36218 962.5625,862.36218 940,886.79968 940,862.36218 920,862.36218 z"
       id="rect3845"
       inkscape:export-filename="D:\temp\temp.png"
       inkscape:export-xdpi="162"
       inkscape:export-ydpi="162"
       inkscape:connector-curvature="0" />
    <path
       inkscape:export-filename="D:\temp\temp.png"
       inkscape:export-xdpi="162"
       inkscape:export-ydpi="162"
       style="color:#000000;fill:#000000;fill-opacity:1;fill-rule:nonzero;stroke:none;stroke-width:20;marker:none;visibility:visible;display:inline;overflow:visible;enable-background:accumulate"
       d="M 1050 110 C 1027.9086 110 1010 123.43146 1010 140 C 1010 156.56854 1027.9086 170 1050 170 C 1053.3524 170 1056.607 169.67637 1059.7188 169.09375 C 1058.6691 177.51338 1054.449 184.81063 1048.375 189.5 C 1062.2871 187.1553 1073.1121 176.63471 1074.7812 163.53125 C 1084.0443 158.03677 1090 149.54515 1090 140 C 1090 123.43146 1072.0914 110 1050 110 z "
       transform="translate(0,752.36218)"
       id="path3879" />
  </g>
</svg>
